<?xml version="1.0" encoding="UTF-8"?>
<!DOCTYPE svg PUBLIC "-//W3C//DTD SVG 1.1//EN" "http://www.w3.org/Graphics/SVG/1.1/DTD/svg11.dtd">
<svg xmlns="http://www.w3.org/2000/svg" version="1.1" width="256px" height="256px" style="shape-rendering:geometricPrecision; text-rendering:geometricPrecision; image-rendering:optimizeQuality; fill-rule:evenodd; clip-rule:evenodd" xmlns:xlink="http://www.w3.org/1999/xlink">
<g><path style="opacity:1" fill="#e1533c" d="M 206.5,3.5 C 211.314,4.80924 214.148,7.80924 215,12.5C 214.283,11.9558 213.783,11.2891 213.5,10.5C 212.251,8.8639 210.584,7.69724 208.5,7C 194.504,6.50009 180.504,6.33343 166.5,6.5C 135.167,6.5 103.833,6.5 72.5,6.5C 62.4944,6.33352 52.4944,6.50019 42.5,7C 39.4173,7.78597 37.2506,9.61931 36,12.5C 36.5284,8.61167 38.6951,5.77833 42.5,4C 97.1657,3.50001 151.832,3.33334 206.5,3.5 Z"/></g>
<g><path style="opacity:0.443" fill="#e3817a" d="M 34.5,2.5 C 34.573,4.02694 33.9063,5.02694 32.5,5.5C 32.427,3.97306 33.0937,2.97306 34.5,2.5 Z"/></g>
<g><path style="opacity:1" fill="#c4271e" d="M 37.5,-0.5 C 90.1667,-0.5 142.833,-0.5 195.5,-0.5C 194.737,0.26791 193.737,0.76791 192.5,1C 186.167,1.33333 179.833,1.66667 173.5,2C 184.674,2.16952 195.674,2.66952 206.5,3.5C 151.832,3.33334 97.1657,3.50001 42.5,4C 38.6951,5.77833 36.5284,8.61167 36,12.5C 37.2506,9.61931 39.4173,7.78597 42.5,7C 52.4944,6.50019 62.4944,6.33352 72.5,6.5C 76.7267,7.20107 81.06,8.0344 85.5,9C 72.2331,14.1998 58.8998,19.1998 45.5,24C 47.3959,25.8083 47.8959,27.975 47,30.5C 46.79,28.9419 46.29,27.6085 45.5,26.5C 44.021,22.9437 41.6876,21.9437 38.5,23.5C 35.8333,23.5 33.1667,23.5 30.5,23.5C 30.3341,18.4889 30.5007,13.4889 31,8.5C 31.2321,7.26253 31.7321,6.26253 32.5,5.5C 33.9063,5.02694 34.573,4.02694 34.5,2.5C 35.3065,1.27187 36.3065,0.271873 37.5,-0.5 Z"/></g>
<g><path style="opacity:1" fill="#be251c" d="M 72.5,6.5 C 103.833,6.5 135.167,6.5 166.5,6.5C 166.158,7.33825 165.492,7.67158 164.5,7.5C 150.829,7.33343 137.163,7.5001 123.5,8C 126.544,8.35886 126.878,9.02552 124.5,10C 98.2557,20.1932 71.9224,30.1932 45.5,40C 47.282,42.2431 47.782,44.7431 47,47.5C 46.79,45.9419 46.29,44.6085 45.5,43.5C 43.7475,39.7605 41.0808,38.7605 37.5,40.5C 35.0504,40.702 32.717,40.3686 30.5,39.5C 30.5,37.8333 30.5,36.1667 30.5,34.5C 32.717,33.6314 35.0504,33.298 37.5,33.5C 43.0449,34.9764 45.7115,32.643 45.5,26.5C 46.29,27.6085 46.79,28.9419 47,30.5C 47.8959,27.975 47.3959,25.8083 45.5,24C 58.8998,19.1998 72.2331,14.1998 85.5,9C 81.06,8.0344 76.7267,7.20107 72.5,6.5 Z"/></g>
<g><path style="opacity:1" fill="#b7231b" d="M 164.5,7.5 C 166.631,8.31382 168.964,8.81382 171.5,9C 129.344,24.6073 87.3439,40.6073 45.5,57C 46.7736,57.9772 46.7736,58.8106 45.5,59.5C 44.5994,57.2729 42.9328,56.2729 40.5,56.5C 37.5,56.5 34.5,56.5 31.5,56.5C 31.5,54.5 31.5,52.5 31.5,50.5C 34.5,50.5 37.5,50.5 40.5,50.5C 44.8004,50.1847 46.467,47.8514 45.5,43.5C 46.29,44.6085 46.79,45.9419 47,47.5C 47.782,44.7431 47.282,42.2431 45.5,40C 71.9224,30.1932 98.2557,20.1932 124.5,10C 126.878,9.02552 126.544,8.35886 123.5,8C 137.163,7.5001 150.829,7.33343 164.5,7.5 Z"/></g>
<g><path style="opacity:1" fill="#b1231c" d="M 166.5,6.5 C 180.504,6.33343 194.504,6.50009 208.5,7C 210.584,7.69724 212.251,8.8639 213.5,10.5C 157.869,31.9779 102.202,53.4779 46.5,75C 47.5914,77.0639 47.7581,79.2305 47,81.5C 46.31,82.7383 45.81,82.7383 45.5,81.5C 46.6605,76.8254 44.9939,74.1587 40.5,73.5C 37.5,73.5 34.5,73.5 31.5,73.5C 31.5,71.1667 31.5,68.8333 31.5,66.5C 33.5,66.5 35.5,66.5 37.5,66.5C 43.0449,67.9764 45.7115,65.643 45.5,59.5C 46.7736,58.8106 46.7736,57.9772 45.5,57C 87.3439,40.6073 129.344,24.6073 171.5,9C 168.964,8.81382 166.631,8.31382 164.5,7.5C 165.492,7.67158 166.158,7.33825 166.5,6.5 Z"/></g>
<g><path style="opacity:0.998" fill="#ab231c" d="M 195.5,-0.5 C 201.833,-0.5 208.167,-0.5 214.5,-0.5C 216.5,1.67098 218.334,4.00432 220,6.5C 220.5,13.4921 220.666,20.4921 220.5,27.5C 219.842,26.6016 219.176,25.6016 218.5,24.5C 206.833,29 195.167,33.5 183.5,38C 176.331,38.6754 169.331,39.5088 162.5,40.5C 157.027,40.9743 154.36,43.9743 154.5,49.5C 117.96,62.5696 81.6264,76.2363 45.5,90.5C 47.339,92.5271 47.839,94.8604 47,97.5C 46.79,95.9419 46.29,94.6085 45.5,93.5C 43.7009,89.7557 41.0343,88.7557 37.5,90.5C 35.0504,90.702 32.717,90.3686 30.5,89.5C 30.5,87.8333 30.5,86.1667 30.5,84.5C 32.717,83.6314 35.0504,83.298 37.5,83.5C 40.6182,85.0068 43.2849,84.3401 45.5,81.5C 45.81,82.7383 46.31,82.7383 47,81.5C 47.7581,79.2305 47.5914,77.0639 46.5,75C 102.202,53.4779 157.869,31.9779 213.5,10.5C 213.783,11.2891 214.283,11.9558 215,12.5C 214.148,7.80924 211.314,4.80924 206.5,3.5C 195.674,2.66952 184.674,2.16952 173.5,2C 179.833,1.66667 186.167,1.33333 192.5,1C 193.737,0.76791 194.737,0.26791 195.5,-0.5 Z"/></g>
<g><path style="opacity:1" fill="#c1bebd" d="M 30.5,23.5 C 33.1667,23.5 35.8333,23.5 38.5,23.5C 41.204,23.6696 42.8707,25.0029 43.5,27.5C 35.0161,28.493 26.3494,28.8264 17.5,28.5C 17.5,29.5 17.5,30.5 17.5,31.5C 16.3054,31.1344 15.6387,30.301 15.5,29C 16.2887,27.3745 17.2887,25.8745 18.5,24.5C 22.4295,23.5672 26.4295,23.2338 30.5,23.5 Z"/></g>
<g><path style="opacity:1" fill="#9d9c9a" d="M 43.5,27.5 C 44.8333,28.5 44.8333,29.5 43.5,30.5C 35.4931,30.3336 27.4931,30.5003 19.5,31C 18.944,31.3826 18.6107,31.8826 18.5,32.5C 17.8333,32.5 17.5,32.1667 17.5,31.5C 17.5,30.5 17.5,29.5 17.5,28.5C 26.3494,28.8264 35.0161,28.493 43.5,27.5 Z"/></g>
<g><path style="opacity:1" fill="#2b1e1a" d="M 38.5,23.5 C 41.6876,21.9437 44.021,22.9437 45.5,26.5C 45.7115,32.643 43.0449,34.9764 37.5,33.5C 40.3126,33.9754 42.3126,32.9754 43.5,30.5C 44.8333,29.5 44.8333,28.5 43.5,27.5C 42.8707,25.0029 41.204,23.6696 38.5,23.5 Z"/></g>
<g><path style="opacity:0.989" fill="#81807f" d="M 43.5,30.5 C 42.3126,32.9754 40.3126,33.9754 37.5,33.5C 35.0504,33.298 32.717,33.6314 30.5,34.5C 26.8183,34.6653 23.1516,34.4986 19.5,34C 18.944,33.6174 18.6107,33.1174 18.5,32.5C 18.6107,31.8826 18.944,31.3826 19.5,31C 27.4931,30.5003 35.4931,30.3336 43.5,30.5 Z"/></g>
<g><path style="opacity:1" fill="#f5e7e6" d="M 162.5,40.5 C 169.947,40.0714 177.281,40.5714 184.5,42C 188.926,47.4414 188.259,52.1081 182.5,56C 174.833,56.6667 167.167,56.6667 159.5,56C 156.507,54.8415 154.84,52.6748 154.5,49.5C 154.36,43.9743 157.027,40.9743 162.5,40.5 Z"/></g>
<g><path style="opacity:0.996" fill="#cacac9" d="M 30.5,39.5 C 32.717,40.3686 35.0504,40.702 37.5,40.5C 39.698,40.1201 41.3646,40.7868 42.5,42.5C 34.3434,43.3294 26.0101,43.8294 17.5,44C 16.7476,44.6708 16.4142,45.5041 16.5,46.5C 15.4265,45.7494 15.2599,44.7494 16,43.5C 17.1667,42.3333 18.3333,41.1667 19.5,40C 23.1516,39.5014 26.8183,39.3347 30.5,39.5 Z"/></g>
<g><path style="opacity:1" fill="#aeadac" d="M 42.5,42.5 C 43.1667,42.5 43.5,42.8333 43.5,43.5C 34.8333,44.8333 26.1667,46.1667 17.5,47.5C 16.8333,47.5 16.5,47.1667 16.5,46.5C 16.4142,45.5041 16.7476,44.6708 17.5,44C 26.0101,43.8294 34.3434,43.3294 42.5,42.5 Z"/></g>
<g><path style="opacity:1" fill="#281e1b" d="M 37.5,40.5 C 41.0808,38.7605 43.7475,39.7605 45.5,43.5C 46.467,47.8514 44.8004,50.1847 40.5,50.5C 43.5129,48.829 44.5129,46.4956 43.5,43.5C 43.5,42.8333 43.1667,42.5 42.5,42.5C 41.3646,40.7868 39.698,40.1201 37.5,40.5 Z"/></g>
<g><path style="opacity:1" fill="#a41f18" d="M 160.5,45.5 C 167.508,45.3337 174.508,45.5004 181.5,46C 182.833,47.6667 182.833,49.3333 181.5,51C 174.5,51.6667 167.5,51.6667 160.5,51C 159.248,49.1722 159.248,47.3388 160.5,45.5 Z"/></g>
<g><path style="opacity:1" fill="#8b8584" d="M 43.5,43.5 C 44.5129,46.4956 43.5129,48.829 40.5,50.5C 37.5,50.5 34.5,50.5 31.5,50.5C 31.5,52.5 31.5,54.5 31.5,56.5C 31.1667,56.5 30.8333,56.5 30.5,56.5C 30.5,54.5 30.5,52.5 30.5,50.5C 26.4862,50.6655 22.4862,50.4988 18.5,50C 17.7476,49.3292 17.4142,48.4959 17.5,47.5C 26.1667,46.1667 34.8333,44.8333 43.5,43.5 Z"/></g>
<g><path style="opacity:1" fill="#a4221b" d="M 220.5,27.5 C 220.5,37.8333 220.5,48.1667 220.5,58.5C 219.732,57.7375 219.232,56.7375 219,55.5C 208.839,59.3317 198.672,63.165 188.5,67C 177.326,67.8257 166.326,67.659 155.5,66.5C 166.167,66.5 176.833,66.5 187.5,66.5C 187.5,64.8333 187.5,63.1667 187.5,61.5C 176.833,61.5 166.167,61.5 155.5,61.5C 154.549,62.9187 154.216,64.5853 154.5,66.5C 119.522,79.3193 84.5217,92.1527 49.5,105C 47.6813,105.74 46.3479,106.907 45.5,108.5C 44.1805,107.058 42.5138,106.392 40.5,106.5C 37.5,106.5 34.5,106.5 31.5,106.5C 31.5,104.5 31.5,102.5 31.5,100.5C 33.8333,100.5 36.1667,100.5 38.5,100.5C 43.5356,101.472 45.869,99.1385 45.5,93.5C 46.29,94.6085 46.79,95.9419 47,97.5C 47.839,94.8604 47.339,92.5271 45.5,90.5C 81.6264,76.2363 117.96,62.5696 154.5,49.5C 154.84,52.6748 156.507,54.8415 159.5,56C 167.167,56.6667 174.833,56.6667 182.5,56C 188.259,52.1081 188.926,47.4414 184.5,42C 177.281,40.5714 169.947,40.0714 162.5,40.5C 169.331,39.5088 176.331,38.6754 183.5,38C 195.167,33.5 206.833,29 218.5,24.5C 219.176,25.6016 219.842,26.6016 220.5,27.5 Z"/></g>
<g><path style="opacity:1" fill="#c7c5c4" d="M 30.5,56.5 C 30.8333,56.5 31.1667,56.5 31.5,56.5C 34.5,56.5 37.5,56.5 40.5,56.5C 42.69,57.3745 43.69,59.0411 43.5,61.5C 34.9177,60.5301 26.2511,60.1968 17.5,60.5C 17.5,61.8333 17.5,63.1667 17.5,64.5C 14.7774,61.8215 15.1107,59.3215 18.5,57C 22.4862,56.5012 26.4862,56.3345 30.5,56.5 Z"/></g>
<g><path style="opacity:1" fill="#9e9d9c" d="M 43.5,61.5 C 43.7373,62.791 43.404,63.791 42.5,64.5C 38.4144,63.8638 34.2477,63.5304 30,63.5C 25.771,63.5102 21.9377,64.1768 18.5,65.5C 17.8333,65.5 17.5,65.1667 17.5,64.5C 17.5,63.1667 17.5,61.8333 17.5,60.5C 26.2511,60.1968 34.9177,60.5301 43.5,61.5 Z"/></g>
<g><path style="opacity:0.996" fill="#838281" d="M 42.5,64.5 C 41.3646,66.2132 39.698,66.8799 37.5,66.5C 35.5,66.5 33.5,66.5 31.5,66.5C 27.8333,66.5 24.1667,66.5 20.5,66.5C 19.5084,66.6716 18.8417,66.3382 18.5,65.5C 21.9377,64.1768 25.771,63.5102 30,63.5C 34.2477,63.5304 38.4144,63.8638 42.5,64.5 Z"/></g>
<g><path style="opacity:1" fill="#292320" d="M 40.5,56.5 C 42.9328,56.2729 44.5994,57.2729 45.5,59.5C 45.7115,65.643 43.0449,67.9764 37.5,66.5C 39.698,66.8799 41.3646,66.2132 42.5,64.5C 43.404,63.791 43.7373,62.791 43.5,61.5C 43.69,59.0411 42.69,57.3745 40.5,56.5 Z"/></g>
<g><path style="opacity:1" fill="#9e231c" d="M 220.5,58.5 C 220.5,63.8333 220.5,69.1667 220.5,74.5C 219.844,73.7222 219.011,73.0556 218,72.5C 208.028,76.4924 198.028,80.4924 188,84.5C 187.826,79.6486 187.326,74.9819 186.5,70.5C 185.167,70.5 183.833,70.5 182.5,70.5C 182.5,73.8333 182.5,77.1667 182.5,80.5C 173.5,80.5 164.5,80.5 155.5,80.5C 154.71,81.6085 154.21,82.9419 154,84.5C 153.667,83.1667 153.333,81.8333 153,80.5C 116.939,93.9655 80.9388,107.632 45,121.5C 43.9701,121.836 43.4701,122.503 43.5,123.5C 41.3888,122.258 39.3888,122.258 37.5,123.5C 35.2646,123.795 33.2646,123.461 31.5,122.5C 31.5,120.5 31.5,118.5 31.5,116.5C 33.5,116.5 35.5,116.5 37.5,116.5C 44.2264,118.417 46.8931,115.75 45.5,108.5C 46.3479,106.907 47.6813,105.74 49.5,105C 84.5217,92.1527 119.522,79.3193 154.5,66.5C 154.216,64.5853 154.549,62.9187 155.5,61.5C 155.5,61.8333 155.5,62.1667 155.5,62.5C 155.5,63.5 155.5,64.5 155.5,65.5C 155.5,65.8333 155.5,66.1667 155.5,66.5C 166.326,67.659 177.326,67.8257 188.5,67C 198.672,63.165 208.839,59.3317 219,55.5C 219.232,56.7375 219.732,57.7375 220.5,58.5 Z"/></g>
<g><path style="opacity:1" fill="#e0c1bf" d="M 155.5,62.5 C 155.5,62.1667 155.5,61.8333 155.5,61.5C 166.167,61.5 176.833,61.5 187.5,61.5C 187.5,63.1667 187.5,64.8333 187.5,66.5C 176.833,66.5 166.167,66.5 155.5,66.5C 155.5,66.1667 155.5,65.8333 155.5,65.5C 165.833,65.5 176.167,65.5 186.5,65.5C 186.5,64.5 186.5,63.5 186.5,62.5C 176.167,62.5 165.833,62.5 155.5,62.5 Z"/></g>
<g><path style="opacity:1" fill="#f8fcfc" d="M 155.5,62.5 C 165.833,62.5 176.167,62.5 186.5,62.5C 186.5,63.5 186.5,64.5 186.5,65.5C 176.167,65.5 165.833,65.5 155.5,65.5C 155.5,64.5 155.5,63.5 155.5,62.5 Z"/></g>
<g><path style="opacity:1" fill="#bfbbba" d="M 20.5,66.5 C 24.1667,66.5 27.8333,66.5 31.5,66.5C 31.5,68.8333 31.5,71.1667 31.5,73.5C 34.5,73.5 37.5,73.5 40.5,73.5C 42.2294,74.2362 43.2294,75.5695 43.5,77.5C 34.8333,78.8333 26.1667,80.1667 17.5,81.5C 16.3054,81.1344 15.6387,80.301 15.5,79C 16.2887,77.3745 17.2887,75.8745 18.5,74.5C 22.4295,73.5672 26.4295,73.2338 30.5,73.5C 30.5,71.5 30.5,69.5 30.5,67.5C 26.9581,67.8128 23.6248,67.4794 20.5,66.5 Z"/></g>
<g><path style="opacity:1" fill="#99251d" d="M 186.5,70.5 C 187.326,74.9819 187.826,79.6486 188,84.5C 198.028,80.4924 208.028,76.4924 218,72.5C 219.011,73.0556 219.844,73.7222 220.5,74.5C 220.5,78.5 220.5,82.5 220.5,86.5C 219.844,85.7222 219.011,85.0556 218,84.5C 207.855,88.6028 197.689,92.6028 187.5,96.5C 186.797,94.2843 185.464,92.451 183.5,91C 175.167,90.3333 166.833,90.3333 158.5,91C 155.038,93.2393 153.705,96.406 154.5,100.5C 153.663,100.398 152.996,99.3979 152.5,97.5C 116.416,111.029 80.4159,124.863 44.5,139C 45.7383,139.69 45.7383,140.19 44.5,140.5C 43.2921,139.766 41.9587,139.433 40.5,139.5C 37.5,139.5 34.5,139.5 31.5,139.5C 31.5,137.5 31.5,135.5 31.5,133.5C 33.8333,133.5 36.1667,133.5 38.5,133.5C 41.1024,134.969 43.269,134.302 45,131.5C 45.8907,128.502 45.3907,125.836 43.5,123.5C 43.4701,122.503 43.9701,121.836 45,121.5C 80.9388,107.632 116.939,93.9655 153,80.5C 153.333,81.8333 153.667,83.1667 154,84.5C 154.21,82.9419 154.71,81.6085 155.5,80.5C 155.5,81.8333 155.5,83.1667 155.5,84.5C 165.833,84.5 176.167,84.5 186.5,84.5C 186.5,79.8333 186.5,75.1667 186.5,70.5 Z"/></g>
<g><path style="opacity:1" fill="#8c8b8a" d="M 43.5,77.5 C 44.8026,79.7569 44.136,81.5902 41.5,83C 40.2068,83.49 38.8734,83.6567 37.5,83.5C 35.0504,83.298 32.717,83.6314 30.5,84.5C 26.8183,84.6653 23.1516,84.4986 19.5,84C 18.6195,83.2917 17.9528,82.4584 17.5,81.5C 26.1667,80.1667 34.8333,78.8333 43.5,77.5 Z"/></g>
<g><path style="opacity:1" fill="#2a201d" d="M 40.5,73.5 C 44.9939,74.1587 46.6605,76.8254 45.5,81.5C 43.2849,84.3401 40.6182,85.0068 37.5,83.5C 38.8734,83.6567 40.2068,83.49 41.5,83C 44.136,81.5902 44.8026,79.7569 43.5,77.5C 43.2294,75.5695 42.2294,74.2362 40.5,73.5 Z"/></g>
<g><path style="opacity:1" fill="#f0f1f1" d="M 186.5,70.5 C 186.5,75.1667 186.5,79.8333 186.5,84.5C 176.167,84.5 165.833,84.5 155.5,84.5C 155.5,83.1667 155.5,81.8333 155.5,80.5C 164.5,80.5 173.5,80.5 182.5,80.5C 182.5,77.1667 182.5,73.8333 182.5,70.5C 183.833,70.5 185.167,70.5 186.5,70.5 Z"/></g>
<g><path style="opacity:1" fill="#cac9c9" d="M 30.5,89.5 C 32.717,90.3686 35.0504,90.702 37.5,90.5C 39.698,90.1201 41.3646,90.7868 42.5,92.5C 34.3501,93.4927 26.0168,93.8261 17.5,93.5C 17.5,94.5 17.5,95.5 17.5,96.5C 17.5,97.1667 17.5,97.8333 17.5,98.5C 14.7774,95.8215 15.1107,93.3215 18.5,91C 22.3628,89.6463 26.3628,89.1463 30.5,89.5 Z"/></g>
<g><path style="opacity:1" fill="#abaaa9" d="M 42.5,92.5 C 43.1667,92.5 43.5,92.8333 43.5,93.5C 43.5,94.5 43.5,95.5 43.5,96.5C 34.8333,96.5 26.1667,96.5 17.5,96.5C 17.5,95.5 17.5,94.5 17.5,93.5C 26.0168,93.8261 34.3501,93.4927 42.5,92.5 Z"/></g>
<g><path style="opacity:1" fill="#8c8786" d="M 43.5,93.5 C 44.7953,97.5828 43.1286,99.9161 38.5,100.5C 36.1667,100.5 33.8333,100.5 31.5,100.5C 31.5,102.5 31.5,104.5 31.5,106.5C 31.1667,106.5 30.8333,106.5 30.5,106.5C 30.5,104.5 30.5,102.5 30.5,100.5C 26.4862,100.666 22.4862,100.499 18.5,100C 17.944,99.6174 17.6107,99.1174 17.5,98.5C 17.5,97.8333 17.5,97.1667 17.5,96.5C 26.1667,96.5 34.8333,96.5 43.5,96.5C 43.5,95.5 43.5,94.5 43.5,93.5 Z"/></g>
<g><path style="opacity:1" fill="#92211a" d="M 154.5,100.5 C 155.806,102.473 157.473,104.139 159.5,105.5C 159.5,106.5 159.5,107.5 159.5,108.5C 158.167,108.5 156.833,108.5 155.5,108.5C 154.833,113.167 154.167,117.833 153.5,122.5C 153.826,118.116 153.492,113.783 152.5,109.5C 115.819,122.725 79.4861,136.725 43.5,151.5C 42.8933,151.376 42.56,151.043 42.5,150.5C 45.6503,147.842 46.3169,144.509 44.5,140.5C 45.7383,140.19 45.7383,139.69 44.5,139C 80.4159,124.863 116.416,111.029 152.5,97.5C 152.996,99.3979 153.663,100.398 154.5,100.5 Z"/></g>
<g><path style="opacity:1" fill="#2a1b17" d="M 37.5,90.5 C 41.0343,88.7557 43.7009,89.7557 45.5,93.5C 45.869,99.1385 43.5356,101.472 38.5,100.5C 43.1286,99.9161 44.7953,97.5828 43.5,93.5C 43.5,92.8333 43.1667,92.5 42.5,92.5C 41.3646,90.7868 39.698,90.1201 37.5,90.5 Z"/></g>
<g><path style="opacity:1" fill="#e4dfde" d="M 187.5,96.5 C 187.701,101.474 185.368,104.64 180.5,106C 173.42,106.795 166.42,106.628 159.5,105.5C 157.473,104.139 155.806,102.473 154.5,100.5C 153.705,96.406 155.038,93.2393 158.5,91C 166.833,90.3333 175.167,90.3333 183.5,91C 185.464,92.451 186.797,94.2843 187.5,96.5 Z"/></g>
<g><path style="opacity:1" fill="#94271f" d="M 160.5,94.5 C 167.508,94.3337 174.508,94.5004 181.5,95C 182.576,96.7261 182.743,98.5594 182,100.5C 174.914,101.646 167.747,101.812 160.5,101C 159.232,98.8368 159.232,96.6702 160.5,94.5 Z"/></g>
<g><path style="opacity:1" fill="#c1bfbe" d="M 30.5,106.5 C 30.8333,106.5 31.1667,106.5 31.5,106.5C 34.5,106.5 37.5,106.5 40.5,106.5C 42.2294,107.236 43.2294,108.57 43.5,110.5C 35.0161,111.493 26.3494,111.826 17.5,111.5C 17.5,112.5 17.5,113.5 17.5,114.5C 16.3054,114.134 15.6387,113.301 15.5,112C 16.2887,110.374 17.2887,108.874 18.5,107.5C 22.4295,106.567 26.4295,106.234 30.5,106.5 Z"/></g>
<g><path style="opacity:1" fill="#8c201a" d="M 153.5,122.5 C 117.762,135.639 82.2622,149.305 47,163.5C 46.79,161.942 46.29,160.609 45.5,159.5C 44.021,155.944 41.6876,154.944 38.5,156.5C 35.9407,156.802 33.6074,156.468 31.5,155.5C 31.5,153.5 31.5,151.5 31.5,149.5C 33.5,149.5 35.5,149.5 37.5,149.5C 38.9187,150.451 40.5853,150.784 42.5,150.5C 42.56,151.043 42.8933,151.376 43.5,151.5C 79.4861,136.725 115.819,122.725 152.5,109.5C 153.492,113.783 153.826,118.116 153.5,122.5 Z"/></g>
<g><path style="opacity:1" fill="#908d8c" d="M 43.5,110.5 C 44.8026,112.757 44.136,114.59 41.5,116C 40.2068,116.49 38.8734,116.657 37.5,116.5C 35.5,116.5 33.5,116.5 31.5,116.5C 31.5,118.5 31.5,120.5 31.5,122.5C 31.1667,122.5 30.8333,122.5 30.5,122.5C 30.5,120.833 30.5,119.167 30.5,117.5C 26.8183,117.665 23.1516,117.499 19.5,117C 18.6195,116.292 17.9528,115.458 17.5,114.5C 17.5,113.5 17.5,112.5 17.5,111.5C 26.3494,111.826 35.0161,111.493 43.5,110.5 Z"/></g>
<g><path style="opacity:1" fill="#281e1a" d="M 40.5,106.5 C 42.5138,106.392 44.1805,107.058 45.5,108.5C 46.8931,115.75 44.2264,118.417 37.5,116.5C 38.8734,116.657 40.2068,116.49 41.5,116C 44.136,114.59 44.8026,112.757 43.5,110.5C 43.2294,108.57 42.2294,107.236 40.5,106.5 Z"/></g>
<g><path style="opacity:1" fill="#86201a" d="M 220.5,86.5 C 220.5,98.1667 220.5,109.833 220.5,121.5C 220.5,121.833 220.5,122.167 220.5,122.5C 219.833,126.5 219.167,130.5 218.5,134.5C 218.666,130.486 218.499,126.486 218,122.5C 208.423,126.872 198.59,130.539 188.5,133.5C 188.737,134.791 188.404,135.791 187.5,136.5C 187.5,134.833 187.5,133.167 187.5,131.5C 178.167,131.5 168.833,131.5 159.5,131.5C 159.5,129.833 159.5,128.167 159.5,126.5C 158.167,126.5 156.833,126.5 155.5,126.5C 154.512,131.64 154.179,136.974 154.5,142.5C 153.834,139.642 153.167,136.642 152.5,133.5C 116.823,147.006 81.1568,160.506 45.5,174C 46.7383,174.69 46.7383,175.19 45.5,175.5C 44.3734,174.878 43.3734,174.045 42.5,173C 40.6131,172.22 38.9464,172.387 37.5,173.5C 35.5,173.5 33.5,173.5 31.5,173.5C 31.5,171.167 31.5,168.833 31.5,166.5C 33.8333,166.5 36.1667,166.5 38.5,166.5C 43.5356,167.472 45.869,165.138 45.5,159.5C 46.29,160.609 46.79,161.942 47,163.5C 82.2622,149.305 117.762,135.639 153.5,122.5C 154.167,117.833 154.833,113.167 155.5,108.5C 155.5,113.167 155.5,117.833 155.5,122.5C 165.987,123.494 176.654,123.828 187.5,123.5C 187.784,121.585 187.451,119.919 186.5,118.5C 182.167,118.5 177.833,118.5 173.5,118.5C 173.5,115.833 173.5,113.167 173.5,110.5C 172.081,109.549 170.415,109.216 168.5,109.5C 168.5,112.167 168.5,114.833 168.5,117.5C 165.5,117.5 162.5,117.5 159.5,117.5C 159.5,114.5 159.5,111.5 159.5,108.5C 159.5,107.5 159.5,106.5 159.5,105.5C 166.42,106.628 173.42,106.795 180.5,106C 185.368,104.64 187.701,101.474 187.5,96.5C 197.689,92.6028 207.855,88.6028 218,84.5C 219.011,85.0556 219.844,85.7222 220.5,86.5 Z"/></g>
<g><path style="opacity:1" fill="#e0e0e0" d="M 155.5,108.5 C 156.833,108.5 158.167,108.5 159.5,108.5C 159.5,111.5 159.5,114.5 159.5,117.5C 162.625,118.479 165.958,118.813 169.5,118.5C 169.5,115.833 169.5,113.167 169.5,110.5C 170.833,110.5 172.167,110.5 173.5,110.5C 173.5,113.167 173.5,115.833 173.5,118.5C 177.833,118.5 182.167,118.5 186.5,118.5C 186.5,119.833 186.5,121.167 186.5,122.5C 176.167,122.5 165.833,122.5 155.5,122.5C 155.5,117.833 155.5,113.167 155.5,108.5 Z"/></g>
<g><path style="opacity:1" fill="#b37a76" d="M 173.5,110.5 C 172.167,110.5 170.833,110.5 169.5,110.5C 169.5,113.167 169.5,115.833 169.5,118.5C 165.958,118.813 162.625,118.479 159.5,117.5C 162.5,117.5 165.5,117.5 168.5,117.5C 168.5,114.833 168.5,112.167 168.5,109.5C 170.415,109.216 172.081,109.549 173.5,110.5 Z"/></g>
<g><path style="opacity:1" fill="#94403a" d="M 186.5,118.5 C 187.451,119.919 187.784,121.585 187.5,123.5C 176.654,123.828 165.987,123.494 155.5,122.5C 165.833,122.5 176.167,122.5 186.5,122.5C 186.5,121.167 186.5,119.833 186.5,118.5 Z"/></g>
<g><path style="opacity:0.994" fill="#cdcccb" d="M 30.5,122.5 C 30.8333,122.5 31.1667,122.5 31.5,122.5C 33.2646,123.461 35.2646,123.795 37.5,123.5C 39.698,123.12 41.3646,123.787 42.5,125.5C 34.3501,126.493 26.0168,126.826 17.5,126.5C 17.5,128.167 17.5,129.833 17.5,131.5C 14.7774,128.822 15.1107,126.322 18.5,124C 22.3628,122.646 26.3628,122.146 30.5,122.5 Z"/></g>
<g><path style="opacity:1" fill="#2f2320" d="M 37.5,123.5 C 39.3888,122.258 41.3888,122.258 43.5,123.5C 45.3907,125.836 45.8907,128.502 45,131.5C 43.269,134.302 41.1024,134.969 38.5,133.5C 40.9328,133.727 42.5994,132.727 43.5,130.5C 43.7845,128.585 43.4511,126.919 42.5,125.5C 41.3646,123.787 39.698,123.12 37.5,123.5 Z"/></g>
<g><path style="opacity:0.907" fill="#077b38" d="M 220.5,121.5 C 223.482,121.104 226.149,121.771 228.5,123.5C 229.495,128.792 229.828,134.125 229.5,139.5C 226.079,140.047 223.079,141.38 220.5,143.5C 220.5,136.5 220.5,129.5 220.5,122.5C 220.5,122.167 220.5,121.833 220.5,121.5 Z"/></g>
<g><path style="opacity:1" fill="#a6a5a4" d="M 42.5,125.5 C 43.4511,126.919 43.7845,128.585 43.5,130.5C 35.2517,129.531 26.9183,129.198 18.5,129.5C 18.5,130.5 18.5,131.5 18.5,132.5C 17.8333,132.5 17.5,132.167 17.5,131.5C 17.5,129.833 17.5,128.167 17.5,126.5C 26.0168,126.826 34.3501,126.493 42.5,125.5 Z"/></g>
<g><path style="opacity:1" fill="#a26461" d="M 155.5,126.5 C 155.5,131.5 155.5,136.5 155.5,141.5C 156.833,141.5 158.167,141.5 159.5,141.5C 158.081,142.451 156.415,142.784 154.5,142.5C 154.179,136.974 154.512,131.64 155.5,126.5 Z"/></g>
<g><path style="opacity:1" fill="#8e8a89" d="M 43.5,130.5 C 42.5994,132.727 40.9328,133.727 38.5,133.5C 36.1667,133.5 33.8333,133.5 31.5,133.5C 31.5,135.5 31.5,137.5 31.5,139.5C 31.1667,139.5 30.8333,139.5 30.5,139.5C 30.6621,137.473 30.4955,135.473 30,133.5C 25.9423,134.928 22.109,134.595 18.5,132.5C 18.5,131.5 18.5,130.5 18.5,129.5C 26.9183,129.198 35.2517,129.531 43.5,130.5 Z"/></g>
<g><path style="opacity:1" fill="#b89391" d="M 159.5,131.5 C 168.833,131.5 178.167,131.5 187.5,131.5C 187.5,133.167 187.5,134.833 187.5,136.5C 187.167,136.5 186.833,136.5 186.5,136.5C 186.5,135.167 186.5,133.833 186.5,132.5C 177.318,132.827 168.318,132.493 159.5,131.5 Z"/></g>
<g><path style="opacity:1" fill="#dad9d9" d="M 155.5,126.5 C 156.833,126.5 158.167,126.5 159.5,126.5C 159.5,128.167 159.5,129.833 159.5,131.5C 168.318,132.493 177.318,132.827 186.5,132.5C 186.5,133.833 186.5,135.167 186.5,136.5C 177.5,136.5 168.5,136.5 159.5,136.5C 159.5,138.167 159.5,139.833 159.5,141.5C 158.167,141.5 156.833,141.5 155.5,141.5C 155.5,136.5 155.5,131.5 155.5,126.5 Z"/></g>
<g><path style="opacity:1" fill="#7e1e19" d="M 218.5,134.5 C 209.081,138.289 199.581,141.956 190,145.5C 189.055,145.905 188.388,146.572 188,147.5C 187.798,145.744 187.298,144.078 186.5,142.5C 185.893,142.624 185.56,142.957 185.5,143.5C 181.187,144.326 177.02,145.66 173,147.5C 169.291,143.74 164.791,142.574 159.5,144C 157.973,145.032 156.64,146.199 155.5,147.5C 117.905,160.689 80.2384,174.689 42.5,189.5C 41.8333,189.5 41.1667,189.5 40.5,189.5C 37.5,189.5 34.5,189.5 31.5,189.5C 31.5,187.5 31.5,185.5 31.5,183.5C 33.8333,183.5 36.1667,183.5 38.5,183.5C 41.1024,184.969 43.269,184.302 45,181.5C 45.4955,179.527 45.6621,177.527 45.5,175.5C 46.7383,175.19 46.7383,174.69 45.5,174C 81.1568,160.506 116.823,147.006 152.5,133.5C 153.167,136.642 153.834,139.642 154.5,142.5C 156.415,142.784 158.081,142.451 159.5,141.5C 159.5,139.833 159.5,138.167 159.5,136.5C 168.5,136.5 177.5,136.5 186.5,136.5C 186.833,136.5 187.167,136.5 187.5,136.5C 188.404,135.791 188.737,134.791 188.5,133.5C 198.59,130.539 208.423,126.872 218,122.5C 218.499,126.486 218.666,130.486 218.5,134.5 Z"/></g>
<g><path style="opacity:1" fill="#291d1a" d="M 40.5,139.5 C 41.9587,139.433 43.2921,139.766 44.5,140.5C 46.3169,144.509 45.6503,147.842 42.5,150.5C 40.5853,150.784 38.9187,150.451 37.5,149.5C 39.698,149.88 41.3646,149.213 42.5,147.5C 44.9938,145.594 44.9938,143.594 42.5,141.5C 41.8333,140.833 41.1667,140.167 40.5,139.5 Z"/></g>
<g><path style="opacity:1" fill="#c5c1c0" d="M 30.5,139.5 C 30.8333,139.5 31.1667,139.5 31.5,139.5C 34.5,139.5 37.5,139.5 40.5,139.5C 41.1667,140.167 41.8333,140.833 42.5,141.5C 34.5671,143.468 26.2337,144.135 17.5,143.5C 17.5,144.833 17.5,146.167 17.5,147.5C 16.3054,147.134 15.6387,146.301 15.5,145C 16.2887,143.374 17.2887,141.874 18.5,140.5C 22.4295,139.567 26.4295,139.234 30.5,139.5 Z"/></g>
<g><path style="opacity:0.934" fill="#076230" d="M 229.5,139.5 C 229.665,143.182 229.499,146.848 229,150.5C 226.435,152.179 223.602,152.846 220.5,152.5C 220.5,149.5 220.5,146.5 220.5,143.5C 223.079,141.38 226.079,140.047 229.5,139.5 Z"/></g>
<g><path style="opacity:1" fill="#9c9b9a" d="M 42.5,141.5 C 44.9938,143.594 44.9938,145.594 42.5,147.5C 34.3159,147.174 26.3159,147.508 18.5,148.5C 17.8333,148.5 17.5,148.167 17.5,147.5C 17.5,146.167 17.5,144.833 17.5,143.5C 26.2337,144.135 34.5671,143.468 42.5,141.5 Z"/></g>
<g><path style="opacity:1" fill="#791d18" d="M 155.5,147.5 C 155.5,148.167 155.5,148.833 155.5,149.5C 154.521,152.625 154.187,155.958 154.5,159.5C 117.379,173.097 80.3793,187.097 43.5,201.5C 42.8933,201.376 42.56,201.043 42.5,200.5C 44.876,199.488 45.876,197.655 45.5,195C 45.8803,192.297 44.8803,190.463 42.5,189.5C 80.2384,174.689 117.905,160.689 155.5,147.5 Z"/></g>
<g><path style="opacity:1" fill="#868281" d="M 42.5,147.5 C 41.3646,149.213 39.698,149.88 37.5,149.5C 35.5,149.5 33.5,149.5 31.5,149.5C 31.5,151.5 31.5,153.5 31.5,155.5C 31.1667,155.5 30.8333,155.5 30.5,155.5C 30.5,153.833 30.5,152.167 30.5,150.5C 26.8183,150.665 23.1516,150.499 19.5,150C 18.944,149.617 18.6107,149.117 18.5,148.5C 26.3159,147.508 34.3159,147.174 42.5,147.5 Z"/></g>
<g><path style="opacity:1" fill="#d1cecd" d="M 185.5,143.5 C 186.782,144.708 186.782,146.042 185.5,147.5C 181.833,148.833 178.167,150.167 174.5,151.5C 173.614,152.325 173.281,153.325 173.5,154.5C 177.833,154.5 182.167,154.5 186.5,154.5C 186.5,155.833 186.5,157.167 186.5,158.5C 176.167,158.5 165.833,158.5 155.5,158.5C 155.5,155.5 155.5,152.5 155.5,149.5C 155.5,148.833 155.5,148.167 155.5,147.5C 156.64,146.199 157.973,145.032 159.5,144C 164.791,142.574 169.291,143.74 173,147.5C 177.02,145.66 181.187,144.326 185.5,143.5 Z"/></g>
<g><path style="opacity:1" fill="#7a201b" d="M 160.5,148.5 C 162.857,148.337 165.19,148.503 167.5,149C 169.155,150.444 169.822,152.278 169.5,154.5C 166.167,154.5 162.833,154.5 159.5,154.5C 159.325,152.379 159.659,150.379 160.5,148.5 Z"/></g>
<g><path style="opacity:1" fill="#cbcbca" d="M 30.5,155.5 C 30.8333,155.5 31.1667,155.5 31.5,155.5C 33.6074,156.468 35.9407,156.802 38.5,156.5C 40.3797,156.229 41.713,156.896 42.5,158.5C 34.3434,159.329 26.0101,159.829 17.5,160C 16.2264,160.977 16.2264,161.811 17.5,162.5C 17.5,163.167 17.5,163.833 17.5,164.5C 14.7774,161.822 15.1107,159.322 18.5,157C 22.3628,155.646 26.3628,155.146 30.5,155.5 Z"/></g>
<g><path style="opacity:1" fill="#aa8381" d="M 155.5,149.5 C 155.5,152.5 155.5,155.5 155.5,158.5C 165.833,158.5 176.167,158.5 186.5,158.5C 186.5,157.167 186.5,155.833 186.5,154.5C 187.451,155.919 187.784,157.585 187.5,159.5C 176.5,159.5 165.5,159.5 154.5,159.5C 154.187,155.958 154.521,152.625 155.5,149.5 Z"/></g>
<g><path style="opacity:1" fill="#661a18" d="M 219.5,169.5 C 218.513,174.305 218.179,179.305 218.5,184.5C 207.696,187.768 197.029,191.435 186.5,195.5C 182.5,195.5 178.5,195.5 174.5,195.5C 175.648,190.561 173.981,187.061 169.5,185C 165.1,184.022 160.933,184.522 157,186.5C 156.209,187.745 155.709,189.078 155.5,190.5C 154.681,193.305 154.181,196.305 154,199.5C 153.667,198.5 153.333,197.5 153,196.5C 114.818,211.727 76.318,226.06 37.5,239.5C 34.0922,238.422 32.0922,236.089 31.5,232.5C 31.5,232.167 31.5,231.833 31.5,231.5C 31.5,229.167 31.5,226.833 31.5,224.5C 32.4793,225.765 33.4793,227.099 34.5,228.5C 77.071,211.87 119.738,195.87 162.5,180.5C 169.921,180.891 177.254,180.391 184.5,179C 186.93,176.695 187.93,173.862 187.5,170.5C 197.432,166.577 207.432,162.743 217.5,159C 218.227,157.601 218.727,156.101 219,154.5C 219.499,159.489 219.666,164.489 219.5,169.5 Z"/></g>
<g><path style="opacity:1" fill="#261a17" d="M 38.5,156.5 C 41.6876,154.944 44.021,155.944 45.5,159.5C 45.869,165.138 43.5356,167.472 38.5,166.5C 43.1286,165.916 44.7953,163.583 43.5,159.5C 43.5,158.833 43.1667,158.5 42.5,158.5C 41.713,156.896 40.3797,156.229 38.5,156.5 Z"/></g>
<g><path style="opacity:1" fill="#721d18" d="M 220.5,122.5 C 220.5,129.5 220.5,136.5 220.5,143.5C 220.5,146.5 220.5,149.5 220.5,152.5C 220.5,152.833 220.5,153.167 220.5,153.5C 220.5,158.833 220.5,164.167 220.5,169.5C 220.5,174.5 220.5,179.5 220.5,184.5C 219.513,179.695 219.179,174.695 219.5,169.5C 219.666,164.489 219.499,159.489 219,154.5C 218.727,156.101 218.227,157.601 217.5,159C 207.432,162.743 197.432,166.577 187.5,170.5C 186.746,167.909 185.079,166.076 182.5,165C 174.833,164.333 167.167,164.333 159.5,165C 157.313,166.025 155.646,167.525 154.5,169.5C 154.565,169.062 154.399,168.728 154,168.5C 153.691,169.766 153.191,170.933 152.5,172C 118.889,184.87 85.2221,197.536 51.5,210C 49.508,210.574 48.008,211.741 47,213.5C 46.79,211.942 46.29,210.609 45.5,209.5C 44.021,205.944 41.6876,204.944 38.5,206.5C 35.9407,206.802 33.6074,206.468 31.5,205.5C 31.5,203.833 31.5,202.167 31.5,200.5C 35.1667,200.5 38.8333,200.5 42.5,200.5C 42.56,201.043 42.8933,201.376 43.5,201.5C 80.3793,187.097 117.379,173.097 154.5,159.5C 165.5,159.5 176.5,159.5 187.5,159.5C 187.784,157.585 187.451,155.919 186.5,154.5C 182.167,154.5 177.833,154.5 173.5,154.5C 173.281,153.325 173.614,152.325 174.5,151.5C 178.167,150.167 181.833,148.833 185.5,147.5C 186.782,146.042 186.782,144.708 185.5,143.5C 185.56,142.957 185.893,142.624 186.5,142.5C 187.298,144.078 187.798,145.744 188,147.5C 188.388,146.572 189.055,145.905 190,145.5C 199.581,141.956 209.081,138.289 218.5,134.5C 219.167,130.5 219.833,126.5 220.5,122.5 Z"/></g>
<g><path style="opacity:1" fill="#aaa9a8" d="M 42.5,158.5 C 43.1667,158.5 43.5,158.833 43.5,159.5C 43.5,160.5 43.5,161.5 43.5,162.5C 34.8333,162.5 26.1667,162.5 17.5,162.5C 16.2264,161.811 16.2264,160.977 17.5,160C 26.0101,159.829 34.3434,159.329 42.5,158.5 Z"/></g>
<g><path style="opacity:0.908" fill="#f1a610" d="M 220.5,153.5 C 223.482,153.104 226.149,153.771 228.5,155.5C 229.487,158.768 229.82,162.102 229.5,165.5C 226.122,166.023 223.122,167.356 220.5,169.5C 220.5,164.167 220.5,158.833 220.5,153.5 Z"/></g>
<g><path style="opacity:1" fill="#898483" d="M 43.5,159.5 C 44.7953,163.583 43.1286,165.916 38.5,166.5C 36.1667,166.5 33.8333,166.5 31.5,166.5C 31.5,168.833 31.5,171.167 31.5,173.5C 31.1667,173.5 30.8333,173.5 30.5,173.5C 30.5,171.167 30.5,168.833 30.5,166.5C 26.4862,166.666 22.4862,166.499 18.5,166C 17.944,165.617 17.6107,165.117 17.5,164.5C 17.5,163.833 17.5,163.167 17.5,162.5C 26.1667,162.5 34.8333,162.5 43.5,162.5C 43.5,161.5 43.5,160.5 43.5,159.5 Z"/></g>
<g><path style="opacity:1" fill="#c4bdbd" d="M 187.5,170.5 C 187.93,173.862 186.93,176.695 184.5,179C 177.254,180.391 169.921,180.891 162.5,180.5C 156.207,179.607 153.54,175.941 154.5,169.5C 155.646,167.525 157.313,166.025 159.5,165C 167.167,164.333 174.833,164.333 182.5,165C 185.079,166.076 186.746,167.909 187.5,170.5 Z"/></g>
<g><path style="opacity:1" fill="#6a1815" d="M 160.5,169.5 C 167.508,169.334 174.508,169.5 181.5,170C 182.833,171.667 182.833,173.333 181.5,175C 174.5,175.667 167.5,175.667 160.5,175C 159.248,173.172 159.248,171.339 160.5,169.5 Z"/></g>
<g><path style="opacity:1" fill="#6d1b18" d="M 154.5,169.5 C 153.54,175.941 156.207,179.607 162.5,180.5C 119.738,195.87 77.071,211.87 34.5,228.5C 33.4793,227.099 32.4793,225.765 31.5,224.5C 31.5,221.833 31.5,219.167 31.5,216.5C 33.5,216.5 35.5,216.5 37.5,216.5C 43.0449,217.976 45.7115,215.643 45.5,209.5C 46.29,210.609 46.79,211.942 47,213.5C 48.008,211.741 49.508,210.574 51.5,210C 85.2221,197.536 118.889,184.87 152.5,172C 153.191,170.933 153.691,169.766 154,168.5C 154.399,168.728 154.565,169.062 154.5,169.5 Z"/></g>
<g><path style="opacity:1" fill="#c8c7c6" d="M 30.5,173.5 C 30.8333,173.5 31.1667,173.5 31.5,173.5C 33.5,173.5 35.5,173.5 37.5,173.5C 39.698,173.12 41.3646,173.787 42.5,175.5C 34.3501,176.493 26.0168,176.826 17.5,176.5C 17.5,178.167 17.5,179.833 17.5,181.5C 14.7774,178.822 15.1107,176.322 18.5,174C 22.4862,173.501 26.4862,173.334 30.5,173.5 Z"/></g>
<g><path style="opacity:0.925" fill="#eb8b1a" d="M 229.5,165.5 C 229.5,170.833 229.5,176.167 229.5,181.5C 228.167,181.5 227.5,182.167 227.5,183.5C 225.283,184.369 222.95,184.702 220.5,184.5C 220.5,179.5 220.5,174.5 220.5,169.5C 223.122,167.356 226.122,166.023 229.5,165.5 Z"/></g>
<g><path style="opacity:1" fill="#afaead" d="M 42.5,175.5 C 43.1667,175.5 43.5,175.833 43.5,176.5C 43.5,177.5 43.5,178.5 43.5,179.5C 35.1667,179.5 26.8333,179.5 18.5,179.5C 18.5,180.5 18.5,181.5 18.5,182.5C 17.8333,182.5 17.5,182.167 17.5,181.5C 17.5,179.833 17.5,178.167 17.5,176.5C 26.0168,176.826 34.3501,176.493 42.5,175.5 Z"/></g>
<g><path style="opacity:1" fill="#8e8a89" d="M 43.5,176.5 C 44.7953,180.583 43.1286,182.916 38.5,183.5C 36.1667,183.5 33.8333,183.5 31.5,183.5C 31.5,185.5 31.5,187.5 31.5,189.5C 31.1667,189.5 30.8333,189.5 30.5,189.5C 30.5,187.833 30.5,186.167 30.5,184.5C 27.1501,184.665 23.8168,184.498 20.5,184C 19.5842,183.722 18.9175,183.222 18.5,182.5C 18.5,181.5 18.5,180.5 18.5,179.5C 26.8333,179.5 35.1667,179.5 43.5,179.5C 43.5,178.5 43.5,177.5 43.5,176.5 Z"/></g>
<g><path style="opacity:1" fill="#241916" d="M 37.5,173.5 C 38.9464,172.387 40.6131,172.22 42.5,173C 43.3734,174.045 44.3734,174.878 45.5,175.5C 45.6621,177.527 45.4955,179.527 45,181.5C 43.269,184.302 41.1024,184.969 38.5,183.5C 43.1286,182.916 44.7953,180.583 43.5,176.5C 43.5,175.833 43.1667,175.5 42.5,175.5C 41.3646,173.787 39.698,173.12 37.5,173.5 Z"/></g>
<g><path style="opacity:0.082" fill="#f9d5b5" d="M 229.5,181.5 C 229.167,182.5 228.5,183.167 227.5,183.5C 227.5,182.167 228.167,181.5 229.5,181.5 Z"/></g>
<g><path style="opacity:1" fill="#c3c2c2" d="M 186.5,195.5 C 186.5,196.833 186.5,198.167 186.5,199.5C 176.167,199.5 165.833,199.5 155.5,199.5C 155.5,196.5 155.5,193.5 155.5,190.5C 155.709,189.078 156.209,187.745 157,186.5C 160.933,184.522 165.1,184.022 169.5,185C 173.981,187.061 175.648,190.561 174.5,195.5C 178.5,195.5 182.5,195.5 186.5,195.5 Z"/></g>
<g><path style="opacity:1" fill="#5b1917" d="M 219.5,169.5 C 219.179,174.695 219.513,179.695 220.5,184.5C 220.5,184.833 220.5,185.167 220.5,185.5C 220.5,185.833 220.5,186.167 220.5,186.5C 219.67,196.325 219.17,206.325 219,216.5C 218.5,209.842 218.334,203.175 218.5,196.5C 181.508,210.221 144.508,224.055 107.5,238C 100.239,239.348 92.9059,239.848 85.5,239.5C 81.1539,239.666 76.8206,239.499 72.5,239C 104.033,227.157 135.533,215.324 167,203.5C 173.371,201.874 179.871,201.04 186.5,201C 175.992,200.83 165.659,200.33 155.5,199.5C 165.833,199.5 176.167,199.5 186.5,199.5C 186.5,198.167 186.5,196.833 186.5,195.5C 197.029,191.435 207.696,187.768 218.5,184.5C 218.179,179.305 218.513,174.305 219.5,169.5 Z"/></g>
<g><path style="opacity:1" fill="#651c19" d="M 169.5,190.5 C 169.5,191.833 169.5,193.167 169.5,194.5C 166.167,194.5 162.833,194.5 159.5,194.5C 159.867,188.844 162.867,187.011 168.5,189C 169.056,189.383 169.389,189.883 169.5,190.5 Z"/></g>
<g><path style="opacity:1" fill="#c4c0bf" d="M 30.5,189.5 C 30.8333,189.5 31.1667,189.5 31.5,189.5C 34.5,189.5 37.5,189.5 40.5,189.5C 41.925,190.922 42.925,192.589 43.5,194.5C 34.9116,193.364 26.2449,193.198 17.5,194C 16.7476,194.671 16.4142,195.504 16.5,196.5C 15.4265,195.749 15.2599,194.749 16,193.5C 17.1667,192.333 18.3333,191.167 19.5,190C 23.1516,189.501 26.8183,189.335 30.5,189.5 Z"/></g>
<g><path style="opacity:1" fill="#a8a7a6" d="M 43.5,194.5 C 43.5,195.167 43.5,195.833 43.5,196.5C 35.4931,196.334 27.4931,196.5 19.5,197C 18.4019,197.77 18.4019,198.603 19.5,199.5C 17.8564,199.19 16.8564,198.19 16.5,196.5C 16.4142,195.504 16.7476,194.671 17.5,194C 26.2449,193.198 34.9116,193.364 43.5,194.5 Z"/></g>
<g><path style="opacity:1" fill="#804e4b" d="M 169.5,190.5 C 170.451,191.919 170.784,193.585 170.5,195.5C 166.629,195.815 162.962,195.482 159.5,194.5C 162.833,194.5 166.167,194.5 169.5,194.5C 169.5,193.167 169.5,191.833 169.5,190.5 Z"/></g>
<g><path style="opacity:1" fill="#322522" d="M 40.5,189.5 C 41.1667,189.5 41.8333,189.5 42.5,189.5C 44.8803,190.463 45.8803,192.297 45.5,195C 45.876,197.655 44.876,199.488 42.5,200.5C 38.8333,200.5 35.1667,200.5 31.5,200.5C 34.977,199.677 38.6437,199.177 42.5,199C 43.2524,198.329 43.5858,197.496 43.5,196.5C 43.5,195.833 43.5,195.167 43.5,194.5C 42.925,192.589 41.925,190.922 40.5,189.5 Z"/></g>
<g><path style="opacity:1" fill="#601917" d="M 155.5,190.5 C 155.5,193.5 155.5,196.5 155.5,199.5C 165.659,200.33 175.992,200.83 186.5,201C 179.871,201.04 173.371,201.874 167,203.5C 135.533,215.324 104.033,227.157 72.5,239C 76.8206,239.499 81.1539,239.666 85.5,239.5C 70.676,240.496 55.676,240.829 40.5,240.5C 39.209,240.737 38.209,240.404 37.5,239.5C 76.318,226.06 114.818,211.727 153,196.5C 153.333,197.5 153.667,198.5 154,199.5C 154.181,196.305 154.681,193.305 155.5,190.5 Z"/></g>
<g><path style="opacity:1" fill="#541a18" d="M 220.5,186.5 C 220.5,196.5 220.5,206.5 220.5,216.5C 220.5,221.5 220.5,226.5 220.5,231.5C 218.982,236.517 215.648,239.684 210.5,241C 153.665,241.832 96.9985,241.665 40.5,240.5C 55.676,240.829 70.676,240.496 85.5,239.5C 92.9059,239.848 100.239,239.348 107.5,238C 144.508,224.055 181.508,210.221 218.5,196.5C 218.334,203.175 218.5,209.842 219,216.5C 219.17,206.325 219.67,196.325 220.5,186.5 Z"/></g>
<g><path style="opacity:1" fill="#8a8786" d="M 43.5,196.5 C 43.5858,197.496 43.2524,198.329 42.5,199C 38.6437,199.177 34.977,199.677 31.5,200.5C 31.5,202.167 31.5,203.833 31.5,205.5C 31.1667,205.5 30.8333,205.5 30.5,205.5C 30.5,203.833 30.5,202.167 30.5,200.5C 26.6286,200.815 22.9619,200.482 19.5,199.5C 18.4019,198.603 18.4019,197.77 19.5,197C 27.4931,196.5 35.4931,196.334 43.5,196.5 Z"/></g>
<g><path style="opacity:0.921" fill="#1085cc" d="M 220.5,185.5 C 223.482,185.104 226.149,185.771 228.5,187.5C 229.665,196.482 229.832,205.482 229,214.5C 226.519,216.314 223.685,216.98 220.5,216.5C 220.5,206.5 220.5,196.5 220.5,186.5C 220.5,186.167 220.5,185.833 220.5,185.5 Z"/></g>
<g><path style="opacity:0.992" fill="#ccccca" d="M 30.5,205.5 C 30.8333,205.5 31.1667,205.5 31.5,205.5C 33.6074,206.468 35.9407,206.802 38.5,206.5C 40.3797,206.229 41.713,206.896 42.5,208.5C 34.3501,209.493 26.0168,209.826 17.5,209.5C 17.5,211.167 17.5,212.833 17.5,214.5C 14.7774,211.822 15.1107,209.322 18.5,207C 22.3628,205.646 26.3628,205.146 30.5,205.5 Z"/></g>
<g><path style="opacity:1" fill="#a6a5a4" d="M 42.5,208.5 C 43.4511,209.919 43.7845,211.585 43.5,213.5C 35.2517,212.531 26.9183,212.198 18.5,212.5C 18.5,213.5 18.5,214.5 18.5,215.5C 17.8333,215.5 17.5,215.167 17.5,214.5C 17.5,212.833 17.5,211.167 17.5,209.5C 26.0168,209.826 34.3501,209.493 42.5,208.5 Z"/></g>
<g><path style="opacity:1" fill="#8c8583" d="M 43.5,213.5 C 42.3126,215.975 40.3126,216.975 37.5,216.5C 35.5,216.5 33.5,216.5 31.5,216.5C 31.5,219.167 31.5,221.833 31.5,224.5C 31.5,226.833 31.5,229.167 31.5,231.5C 30.6739,226.684 30.1739,221.684 30,216.5C 25.9423,217.928 22.109,217.595 18.5,215.5C 18.5,214.5 18.5,213.5 18.5,212.5C 26.9183,212.198 35.2517,212.531 43.5,213.5 Z"/></g>
<g><path style="opacity:1" fill="#271d1a" d="M 38.5,206.5 C 41.6876,204.944 44.021,205.944 45.5,209.5C 45.7115,215.643 43.0449,217.976 37.5,216.5C 40.3126,216.975 42.3126,215.975 43.5,213.5C 43.7845,211.585 43.4511,209.919 42.5,208.5C 41.713,206.896 40.3797,206.229 38.5,206.5 Z"/></g>
<g><path style="opacity:0.254" fill="#030000" d="M 220.5,231.5 C 229.079,232.585 237.413,234.751 245.5,238C 247.887,240.953 247.221,243.286 243.5,245C 226.871,249.857 210.038,252.357 193,252.5C 179.086,253.769 165.253,254.769 151.5,255.5C 135.5,255.5 119.5,255.5 103.5,255.5C 85.3097,254.562 66.9764,253.396 48.5,252C 35.0892,251.201 22.0892,248.534 9.5,244C 7.33895,242.236 7.17229,240.403 9,238.5C 16.0867,235.02 23.5867,233.02 31.5,232.5C 32.0922,236.089 34.0922,238.422 37.5,239.5C 38.209,240.404 39.209,240.737 40.5,240.5C 96.9985,241.665 153.665,241.832 210.5,241C 215.648,239.684 218.982,236.517 220.5,231.5 Z"/></g>
</svg>
